<svg width="64px" height="64px" viewBox="0 0 64 64" xmlns="http://www.w3.org/2000/svg"><title>all</title>
  <path id='ytshell' d="M30.8,53.06a146.19,146.19,0,0,1-15.94-.83A13,13,0,0,1,3.39,40.62a83.16,83.16,0,0,1,.12-17.28A13.07,13.07,0,0,1,15.23,11.91a160.72,160.72,0,0,1,33.6,0A13.07,13.07,0,0,1,60.6,23.64a82.79,82.79,0,0,1-.07,16.95A12.85,12.85,0,0,1,49,52.24h0C42.42,52.79,36.41,53.06,30.8,53.06Zm1.29-40a164.28,164.28,0,0,0-16.65.85A11.06,11.06,0,0,0,5.5,23.56a81.11,81.11,0,0,0-.12,16.87,11,11,0,0,0,9.69,9.82,175.5,175.5,0,0,0,33.79,0h0a10.85,10.85,0,0,0,9.67-9.87,80.8,80.8,0,0,0,.07-16.54,11.09,11.09,0,0,0-10-9.91A153,153,0,0,0,32.09,13Z"/>
  <path id='ytplay' d="M26,41.5a1,1,0,0,1-1-1v-17a1,1,0,0,1,1.54-.84l14,9a1,1,0,0,1,0,1.71l-14,8A1,1,0,0,1,26,41.5Zm1-16.17V38.78l11.07-6.33Z"/>
  <path id='fb' d="M44,7H20A13,13,0,0,0,7,20V44A13,13,0,0,0,20,57H44A13,13,0,0,0,57,44V20A13,13,0,0,0,44,7ZM33,55V38a1,1,0,0,0-1-1H27V31h5a1,1,0,0,0,1-1V22a5,5,0,0,1,5-5h8v6H42a3,3,0,0,0-3,3v4a1,1,0,0,0,1,1h6v6H40a1,1,0,0,0-1,1V55ZM55,44A11,11,0,0,1,44,55H41V39h6a1,1,0,0,0,1-1V30a1,1,0,0,0-1-1H41V26a1,1,0,0,1,1-1h5a1,1,0,0,0,1-1V16a1,1,0,0,0-1-1H38a7,7,0,0,0-7,7v7H26a1,1,0,0,0-1,1v8a1,1,0,0,0,1,1h5V55H20A11,11,0,0,1,9,44V20A11,11,0,0,1,20,9H44A11,11,0,0,1,55,20Z"/>
  <path id='igsq' d="M44,57H20A13,13,0,0,1,7,44V20A13,13,0,0,1,20,7H44A13,13,0,0,1,57,20V44A13,13,0,0,1,44,57ZM20,9A11,11,0,0,0,9,20V44A11,11,0,0,0,20,55H44A11,11,0,0,0,55,44V20A11,11,0,0,0,44,9Z"/>
  <path id='igbigdot' d="M32,43.67A11.67,11.67,0,1,1,43.67,32,11.68,11.68,0,0,1,32,43.67Zm0-21.33A9.67,9.67,0,1,0,41.67,32,9.68,9.68,0,0,0,32,22.33Z"/>
  <path id='igsmdot' d="M44.5,21A3.5,3.5,0,1,1,48,17.5,3.5,3.5,0,0,1,44.5,21Zm0-5A1.5,1.5,0,1,0,46,17.5,1.5,1.5,0,0,0,44.5,16Z"/>
  <path id='linsq' d="M44,7H20A13,13,0,0,0,7,20V44A13,13,0,0,0,20,57H44A13,13,0,0,0,57,44V20A13,13,0,0,0,44,7ZM55,44A11,11,0,0,1,44,55H20A11,11,0,0,1,9,44V20A11,11,0,0,1,20,9H44A11,11,0,0,1,55,20Z"/>
  <path id='lindot' d="M18.5,14A4.5,4.5,0,1,0,23,18.5,4.5,4.5,0,0,0,18.5,14Zm0,7A2.5,2.5,0,1,1,21,18.5,2.5,2.5,0,0,1,18.5,21Z"/>
  <path id='lini' d="M22,25H15a1,1,0,0,0-1,1V49a1,1,0,0,0,1,1h7a1,1,0,0,0,1-1V26A1,1,0,0,0,22,25ZM21,48H16V27h5Z"/>
  <path id='linn' d="M42,25h0a14.18,14.18,0,0,0-7,2.11V26a1,1,0,0,0-1-1H27a1,1,0,0,0-1,1V49a1,1,0,0,0,1,1h7a1,1,0,0,0,1-1V33.81A7.66,7.66,0,0,1,38,33c2.81,0,3,2,3,2.44V49a1,1,0,0,0,1,1h7a1,1,0,0,0,1-1V33.17a8.3,8.3,0,0,0-2.14-6.11A7.93,7.93,0,0,0,42,25Zm6,23H43V35.44C43,33.9,42,31,38,31a10.24,10.24,0,0,0-4.45,1.29,1,1,0,0,0-.55.89V48H28V27h5v2.06a1,1,0,0,0,1.66.75A12.31,12.31,0,0,1,42,27h0a6,6,0,0,1,4.42,1.47A6.41,6.41,0,0,1,48,33.17Z"/>
</svg>